<?xml version="1.0" encoding="UTF-8"?>
<svg id="Layer_1" xmlns="http://www.w3.org/2000/svg" version="1.1" viewBox="0 0 512 512">
  <!-- Generator: Adobe Illustrator 30.2.1, SVG Export Plug-In . SVG Version: 2.1.1 Build 1)  -->
  <defs>
    <style>
      .st0 {
        fill: #1e6bff;
      }
    </style>
  </defs>
  <path class="st0" d="M497,512h-176.7c-8.3,0-15-6.7-15-15v-112.5c0-27.2-22.1-49.3-49.3-49.3s-49.3,22.1-49.3,49.3v112.5c0,8.3-6.7,15-15,15H15c-8.3,0-15-6.7-15-15v-241c0-4,1.6-7.8,4.4-10.6L245.4,4.4c5.9-5.9,15.4-5.9,21.2,0l241,241c2.8,2.8,4.4,6.6,4.4,10.6v241c0,8.3-6.7,15-15,15Z"/>
</svg>