<?xml version="1.0" encoding="UTF-8"?>
<svg id="Layer_1" xmlns="http://www.w3.org/2000/svg" version="1.1" viewBox="0 0 504.4 504.4">
  <!-- Generator: Adobe Illustrator 30.2.1, SVG Export Plug-In . SVG Version: 2.1.1 Build 1)  -->
  <defs>
    <style>
      .st0 {
        fill: #1e6bff;
      }
    </style>
  </defs>
  <path class="st0" d="M377.6.2H126.4C56.8.2,0,57,0,126.6v251.6c0,69.2,56.8,126,126.4,126h251.6c69.6,0,126.4-56.8,126.4-126.4V126.6C504,57,447.2.2,377.6.2ZM168,408.2h-72v-208h72v208ZM131.6,168.2c-20.4,0-36.8-16.4-36.8-36.8s16.4-36.8,36.8-36.8,36.8,16.4,36.8,36.8c-.4,20.4-16.8,36.8-36.8,36.8ZM408.4,408.2h-60.4v-100.8c0-24.4-3.2-55.6-36.4-55.6s-39.6,26.4-39.6,54v102.4h-60v-208h56v28h1.6c8.8-16,29.2-28.4,61.2-28.4,66,0,77.6,38,77.6,94.4v114h0Z"/>
</svg>