<svg xmlns="http://www.w3.org/2000/svg" version="1.1" xmlns:xlink="http://www.w3.org/1999/xlink" width="1000" height="1000"><g clip-path="url(#SvgjsClipPath1155)"><rect width="1000" height="1000" fill="#000000"></rect><g transform="matrix(13.781697905181918,0,0,13.781697905181918,0,0.13781697905176316)"><svg xmlns="http://www.w3.org/2000/svg" id="Ebene_1" data-name="Ebene 1" viewBox="0 0 72.56 72.54" width="72.56" height="72.54"><defs>
    <style>
      .cls-1 {
        fill: #fcfdff;
      }

      .cls-2 {
        fill: #fefeff;
      }

      .cls-3 {
        fill: #1f6cff;
      }

      .cls-4 {
        fill: #fdfeff;
      }

      .cls-5 {
        fill: #a4c4ff;
      }
    </style>
  <clipPath id="SvgjsClipPath1155"><rect width="1000" height="1000" x="0" y="0" rx="500" ry="500"></rect></clipPath></defs><path class="cls-3" d="M18.03,4.92c3.1-1.82,6.39-3.11,9.86-3.93,1.66-.39,3.33-.67,5.03-.83,1.47-.14,2.95-.18,4.42-.15,2.28.06,4.54.35,6.76.85,2.57.58,5.06,1.4,7.46,2.51,3.04,1.41,5.82,3.21,8.36,5.4.99.86,1.94,1.78,2.85,2.72,1.27,1.33,2.4,2.78,3.45,4.29,1.66,2.41,3,4.98,4.03,7.72.8,2.15,1.39,4.36,1.78,6.63.23,1.35.4,2.7.47,4.06.05,1,.1,2.01.06,3.02-.1,2.85-.5,5.65-1.23,8.4-.97,3.63-2.45,7.03-4.49,10.19-1.14,1.76-2.41,3.42-3.83,4.97-1.87,2.05-3.96,3.84-6.25,5.42-1.58,1.09-3.25,2.05-4.98,2.87-2.18,1.03-4.44,1.82-6.78,2.39-1.76.43-3.54.73-5.34.91-1.75.17-3.51.21-5.26.12-2.45-.12-4.87-.52-7.25-1.13-2.71-.7-5.31-1.7-7.79-3.01-2.42-1.28-4.67-2.81-6.73-4.61-.98-.86-1.92-1.76-2.82-2.7-1.23-1.28-2.32-2.67-3.34-4.13-1.71-2.46-3.09-5.09-4.14-7.89-.81-2.17-1.42-4.39-1.78-6.67-.19-1.19-.36-2.38-.45-3.58-.09-1.13-.12-2.28-.08-3.42.07-2.45.38-4.88.94-7.28.71-3.03,1.76-5.93,3.21-8.69,1.28-2.43,2.82-4.7,4.62-6.77.87-1,1.79-1.97,2.75-2.88,1.89-1.78,3.96-3.33,6.19-4.66.09-.06.18-.11.3-.18M9.88,52.19c1.56,2.58,3.49,4.86,5.72,6.88,2.06,1.87,4.35,3.41,6.83,4.66,1.54.77,3.13,1.41,4.77,1.92,2.38.74,4.82,1.15,7.3,1.29,1.32.07,2.65.07,3.98-.04,1.12-.09,2.24-.22,3.34-.41,3.26-.56,6.31-1.69,9.21-3.25,3.3-1.78,6.15-4.11,8.61-6.93,1.84-2.12,3.35-4.45,4.55-7,1.03-2.18,1.81-4.44,2.29-6.8.36-1.76.57-3.54.61-5.34.03-1.38.03-2.76-.16-4.14-.16-1.14-.3-2.29-.54-3.41-.62-2.88-1.68-5.59-3.1-8.17-1.68-3.07-3.85-5.74-6.44-8.08-2.07-1.87-4.38-3.41-6.88-4.65-1.42-.7-2.89-1.29-4.4-1.78-2.75-.89-5.57-1.31-8.45-1.42-1.21-.05-2.41-.01-3.61.13-1.09.13-2.18.24-3.26.44-2.93.56-5.7,1.57-8.35,2.95-2.46,1.29-4.72,2.88-6.74,4.78-1.46,1.37-2.79,2.86-3.96,4.49-1.8,2.5-3.19,5.21-4.19,8.13-.57,1.66-.98,3.37-1.24,5.11-.2,1.35-.31,2.71-.35,4.08-.02.67.02,1.34.05,2.01.04.72.09,1.44.16,2.16.14,1.46.41,2.89.79,4.3.76,2.84,1.92,5.52,3.46,8.09Z"></path><path class="cls-2" d="M9.86,52.16c-1.53-2.55-2.69-5.22-3.45-8.06-.38-1.41-.65-2.84-.79-4.3-.07-.72-.12-1.44-.16-2.16-.04-.67-.07-1.34-.05-2.01.04-1.36.15-2.72.35-4.08.26-1.74.67-3.44,1.24-5.11,1-2.91,2.39-5.62,4.19-8.13,1.17-1.63,2.51-3.12,3.96-4.49,2.02-1.9,4.28-3.49,6.74-4.78,2.64-1.38,5.42-2.4,8.35-2.95,1.08-.2,2.17-.31,3.26-.44,1.2-.14,2.41-.18,3.61-.13,2.88.11,5.7.53,8.45,1.42,1.51.49,2.98,1.07,4.4,1.78,2.5,1.24,4.81,2.78,6.88,4.65,2.59,2.34,4.76,5.01,6.44,8.08,1.41,2.58,2.48,5.29,3.1,8.17.24,1.12.38,2.27.54,3.41.19,1.37.19,2.76.16,4.14-.04,1.8-.25,3.58-.61,5.34-.48,2.36-1.27,4.62-2.29,6.8-1.2,2.54-2.7,4.88-4.55,7-2.46,2.82-5.31,5.16-8.61,6.93-2.9,1.56-5.96,2.69-9.21,3.25-1.11.19-2.22.32-3.34.41-1.33.1-2.66.11-3.98.04-2.48-.14-4.92-.55-7.3-1.29-1.64-.51-3.24-1.15-4.77-1.92-2.48-1.25-4.77-2.79-6.83-4.66-2.23-2.02-4.16-4.3-5.73-6.9M46.74,29.53s.05,0,.04.06c-.41,1.02-.84,2.03-1.22,3.06-.96,2.53-1.91,5.07-2.84,7.61-.56,1.54-1.07,3.09-1.59,4.64-.28.86-.53,1.74-.78,2.62-.11.4-.02.78.21,1.11.43.62,1.01,1.01,1.79,1.1.46.06.81-.09,1.12-.4.1-.09.18-.2.26-.31.76-1.09,1.58-2.13,2.47-3.12,1.12-1.25,2.24-2.5,3.48-3.63.93-.84,1.91-1.61,3.02-2.19.45-.23.92-.4,1.41-.44.44-.04.9.02,1.16.47.12.22.2.47.28.71.13.36.02.67-.25.91-.57.51-1.13,1.03-1.72,1.51-.6.48-1.25.89-1.85,1.35-.94.73-1.88,1.47-2.79,2.24-.92.8-1.82,1.63-2.7,2.48-.77.75-1.52,1.51-2.23,2.31-.73.82-1.41,1.68-2.1,2.54-.77.97-1.44,2-1.97,3.13-.2.42-.43.84-.53,1.29-.16.72-.24,1.45-.09,2.19.17.8.57,1.43,1.3,1.84.89.5,1.84.51,2.81.34,1.1-.19,2.12-.61,3.05-1.2.86-.54,1.69-1.14,2.51-1.75,1.78-1.33,3.36-2.88,4.81-4.56.84-.99,1.63-2.03,2.38-3.08,1.44-2.02,2.65-4.16,3.47-6.51.4-1.14.73-2.3.65-3.53-.07-.97-.22-1.9-.75-2.75-.68-1.07-1.51-1.95-2.66-2.5-.48-.22-.99-.36-1.51-.55.07-.08.15-.17.23-.25.32-.3.66-.59.96-.91.6-.63,1.21-1.26,1.77-1.92.93-1.1,1.76-2.27,2.33-3.6.28-.65.48-1.34.48-2.06,0-.22-.07-.44-.13-.66-.12-.42-.21-.86-.39-1.26-.73-1.61-1.9-2.8-3.43-3.67-1.23-.7-2.55-.88-3.92-.72-.93.11-1.83.36-2.71.69-1.74.64-3.33,1.55-4.83,2.62-.79.56-1.53,1.17-2.3,1.76-.04.03-.09.04-.19.1.15-.44.28-.81.4-1.19.37-1.13.68-2.28.85-3.46.07-.48.18-.95.2-1.43.03-.71,0-1.42-.03-2.13-.04-.89-.34-1.73-.61-2.57-.19-.6-.4-1.19-.77-1.72-.45-.64-.97-1.21-1.56-1.72-.73-.64-1.55-1.17-2.41-1.59-.92-.46-1.9-.79-2.91-1.03-1.33-.32-2.67-.47-4.03-.25-1.54.25-3.01.76-4.41,1.46-.67.34-1.33.7-1.98,1.07-1.19.68-2.31,1.46-3.4,2.3-1.27.98-2.49,2.04-3.62,3.19-1.02,1.03-1.96,2.13-2.83,3.29-.71.95-1.34,1.94-1.86,3.01-.39.8-.69,1.62-.87,2.5-.39,1.9.87,4.24,2.9,4.71.79.18,1.54.16,2.26-.23.19-.1.39-.22.51-.48-.13-.01-.21-.03-.3-.03-.33.02-.63-.1-.92-.22-.43-.18-.67-.51-.71-.95-.03-.34-.03-.7.05-1.03.2-.91.63-1.74,1.13-2.52,1.14-1.78,2.5-3.39,3.95-4.91,1.12-1.18,2.31-2.28,3.58-3.29.48-.38,1-.71,1.56-1.03.03.03.05.07.06.16-.18.52-.36,1.04-.55,1.55-.55,1.48-1.11,2.96-1.66,4.44-.58,1.56-1.15,3.11-1.71,4.68-.11.31-.29.54-.52.75-1.44,1.35-2.88,2.69-4.31,4.05-.97.93-1.86,1.93-2.69,2.99-1.18,1.49-2.15,3.11-2.99,4.81-.75,1.52-1.34,3.1-1.6,4.79-.13.87-.16,1.73.04,2.6.35,1.56,1.36,2.52,2.83,3.01.96.32,1.96.41,2.97.32.88-.08,1.76-.21,2.6-.46.97-.29,1.93-.65,2.87-1.03,1.62-.66,3.14-1.52,4.59-2.48,1.39-.92,2.7-1.94,3.96-3.04,1.24-1.08,2.44-2.21,3.54-3.45.34-.38.69-.76,1.06-1.16.22.64.55,1.17,1.01,1.62.99.97,2.14,1.51,3.55,1.34.51-.06.92-.29,1.2-.72.14-.2.26-.43.2-.64-.41-.02-.78-.03-1.15-.07-.37-.04-.58-.29-.69-.64-.11-.36-.1-.71-.04-1.07.16-1,.62-1.88,1.12-2.74.84-1.42,1.85-2.72,2.97-3.95.81-.88,1.66-1.71,2.62-2.5Z"></path><path class="cls-3" d="M27.39,16.36c-.5.35-1.03.69-1.51,1.07-1.27,1.01-2.46,2.12-3.58,3.29-1.46,1.53-2.81,3.13-3.95,4.91-.5.78-.93,1.6-1.13,2.52-.07.33-.07.69-.05,1.03.04.44.28.77.71.95.3.12.59.24.92.22.09,0,.18.01.3.03-.12.26-.32.37-.51.48-.72.39-1.47.41-2.26.23-2.03-.47-3.29-2.81-2.9-4.71.18-.88.48-1.7.87-2.5.52-1.06,1.15-2.06,1.86-3.01.87-1.16,1.81-2.26,2.83-3.29,1.13-1.15,2.34-2.21,3.62-3.19,1.08-.84,2.21-1.61,3.4-2.3.65-.37,1.31-.73,1.98-1.07,1.4-.71,2.86-1.21,4.41-1.46,1.35-.22,2.69-.07,4.03.25,1.01.24,1.99.57,2.91,1.03.87.43,1.68.95,2.41,1.59.59.51,1.11,1.08,1.56,1.72.37.53.58,1.12.77,1.72.27.84.57,1.68.61,2.57.03.71.05,1.42.03,2.13-.02.48-.13.95-.2,1.43-.17,1.18-.48,2.33-.85,3.46-.12.38-.25.75-.4,1.19.11-.05.16-.07.19-.1.76-.59,1.51-1.2,2.3-1.76,1.5-1.07,3.09-1.97,4.83-2.62.88-.33,1.79-.57,2.71-.69,1.37-.17,2.69.02,3.92.72,1.53.87,2.71,2.06,3.43,3.67.18.4.27.84.39,1.26.06.22.13.44.13.66,0,.72-.2,1.4-.48,2.06-.57,1.33-1.4,2.5-2.33,3.6-.56.67-1.17,1.29-1.77,1.92-.3.32-.64.61-.96.91-.08.08-.16.17-.23.25.52.18,1.03.32,1.51.55,1.15.54,1.98,1.43,2.66,2.5.54.85.69,1.78.75,2.75.08,1.23-.25,2.39-.65,3.53-.82,2.35-2.03,4.49-3.47,6.51-.75,1.06-1.54,2.1-2.38,3.08-1.44,1.68-3.03,3.23-4.81,4.56-.81.61-1.65,1.2-2.51,1.75-.93.59-1.95,1.01-3.05,1.2-.97.17-1.92.16-2.81-.34-.73-.41-1.13-1.04-1.3-1.84-.16-.74-.07-1.48.09-2.19.1-.45.33-.87.53-1.29.52-1.12,1.2-2.16,1.97-3.13.68-.86,1.37-1.72,2.1-2.54.71-.8,1.46-1.57,2.23-2.31.88-.85,1.77-1.68,2.7-2.48.9-.78,1.85-1.51,2.79-2.24.6-.47,1.25-.88,1.85-1.35.6-.48,1.16-1,1.72-1.51.27-.24.38-.55.25-.91-.09-.24-.16-.49-.28-.71-.26-.45-.72-.51-1.16-.47-.49.04-.96.21-1.41.44-1.12.58-2.1,1.34-3.02,2.19-1.24,1.13-2.36,2.38-3.48,3.63-.89.99-1.71,2.03-2.47,3.12-.08.11-.16.21-.26.31-.31.31-.66.46-1.12.4-.78-.09-1.36-.48-1.79-1.1-.23-.33-.32-.71-.21-1.11.25-.88.49-1.75.78-2.62.51-1.55,1.03-3.1,1.59-4.64.93-2.54,1.88-5.08,2.84-7.61.39-1.03.82-2.04,1.25-3.11.03-.09.03-.13.04-.17,0,0,0,0-.03.01-.07.05-.11.1-.15.14-.89.8-1.75,1.63-2.55,2.51-1.12,1.22-2.13,2.52-2.97,3.95-.51.85-.96,1.74-1.12,2.74-.06.36-.06.72.04,1.07.11.35.32.6.69.64.37.04.74.05,1.15.07.06.22-.06.44-.2.64-.28.42-.69.66-1.2.72-1.42.17-2.57-.37-3.55-1.34-.46-.45-.79-.98-1.01-1.62-.37.4-.72.78-1.06,1.16-1.1,1.23-2.3,2.36-3.54,3.45-1.25,1.09-2.57,2.12-3.96,3.04-1.46.96-2.97,1.83-4.59,2.48-.94.38-1.9.74-2.87,1.03-.84.25-1.72.37-2.6.46-1.02.1-2.01,0-2.97-.32-1.47-.49-2.48-1.45-2.83-3.01-.19-.86-.17-1.73-.04-2.6.26-1.69.84-3.26,1.6-4.79.84-1.7,1.81-3.32,2.99-4.81.84-1.05,1.72-2.06,2.69-2.99,1.43-1.36,2.87-2.7,4.31-4.05.23-.21.41-.45.52-.75.56-1.56,1.14-3.12,1.71-4.68.55-1.48,1.11-2.96,1.66-4.44.19-.51.37-1.03.58-1.6.05-.11.08-.18.14-.33-.15.1-.21.14-.28.19M21.06,35.43c-.63.67-1.31,1.31-1.89,2.03-1.02,1.25-1.91,2.59-2.68,4.01-.56,1.03-1.04,2.09-1.36,3.22-.15.53-.24,1.07-.23,1.63.02.77.5,1.12,1.1,1.21.69.11,1.36.03,2.03-.12,1.39-.31,2.64-.97,3.85-1.69,1.16-.7,2.25-1.51,3.3-2.37,1.2-.99,2.33-2.06,3.41-3.17,1.5-1.54,2.87-3.19,4.17-4.9,1.73-2.28,3.25-4.7,4.55-7.25.94-1.85,1.75-3.77,2.26-5.79.2-.81.4-1.61.57-2.42.18-.86.17-1.73.1-2.6-.06-.79-.12-1.58-.34-2.34-.29-1-.95-1.66-1.92-2.01-1.1-.4-2.22-.31-3.33-.1-1.03.19-2,.58-2.95,1.03-.57.27-1.11.58-1.72.9.3.1.56.18.8.27.63.22,1.04.65,1.17,1.31.2,1.01.17,2.02-.07,3.02-.17.7-.37,1.4-.59,2.09-.3.91-.6,1.83-.96,2.72-.31.78-.69,1.54-1.06,2.3-.75,1.57-1.51,3.14-2.28,4.71-.68,1.39-1.38,2.76-2.04,4.15-.42.88-.77,1.8-1.17,2.69-.36.82-.72,1.65-1.12,2.45-.32.64-.72,1.25-1.07,1.87-.18,0-.31.01-.45,0-.34-.03-.66-.13-.84-.46-.16-.29-.32-.59-.31-.94,0-.11,0-.23-.04-.31-.09-.17-.06-.34-.02-.51.09-.42.19-.84.3-1.25.31-1.11.62-2.22.96-3.36,0-.02,0-.04-.01-.06-.02.02-.04.03-.11.07M56.43,24.78c-.38.02-.78,0-1.15.07-1.62.34-3.1,1.01-4.5,1.87-.35.21-.68.45-1.07.72.19.07.31.12.43.17.39.16.74.38,1.02.7.38.43.51.89.23,1.44-.27.54-.51,1.09-.74,1.65-.57,1.4-1.14,2.8-1.7,4.21-.53,1.32-1.04,2.64-1.56,3.96-.03.07-.04.14-.06.22.16-.08.28-.18.39-.3.53-.57,1.06-1.14,1.59-1.71.77-.82,1.56-1.62,2.3-2.48,1.12-1.3,2.22-2.62,3.28-3.96.76-.95,1.44-1.96,1.98-3.07.27-.54.49-1.1.6-1.7.11-.68-.01-1.48-1.04-1.79M54.19,46.92c.02-.09.05-.17.09-.32-.11.06-.15.07-.18.09-.57.44-1.17.86-1.72,1.32-.96.81-1.93,1.62-2.84,2.49-1.74,1.66-3.37,3.42-4.76,5.38-.58.81-1.07,1.67-1.44,2.59-.07.17-.1.35-.16.58.16-.09.26-.13.35-.19.75-.45,1.42-1.01,2.05-1.61.88-.82,1.74-1.67,2.58-2.54.75-.77,1.47-1.56,2.17-2.37.65-.75,1.26-1.53,1.86-2.31.74-.97,1.44-1.97,2-3.13M47.28,39.89h.01s0-.02-.01,0Z"></path><path class="cls-5" d="M27.42,16.38c.04-.06.11-.11.25-.2-.06.16-.08.22-.13.3-.04-.02-.07-.05-.12-.1Z"></path><path class="cls-5" d="M46.84,29.37s0,.08-.01.14c-.04.02-.06.02-.12.01,0-.05.05-.09.11-.15.02,0,.02,0,.02,0Z"></path><path class="cls-2" d="M21.16,35.46c-.31,1.11-.63,2.22-.93,3.33-.11.41-.21.83-.3,1.25-.04.17-.06.34.02.51.05.09.04.21.04.31,0,.35.16.65.31.94.18.33.5.42.84.46.13.01.27,0,.45,0,.35-.61.75-1.22,1.07-1.87.4-.8.76-1.63,1.12-2.45.39-.89.75-1.81,1.17-2.69.66-1.39,1.36-2.77,2.04-4.15.77-1.57,1.53-3.13,2.28-4.71.37-.76.75-1.52,1.06-2.3.36-.89.66-1.81.96-2.72.22-.69.42-1.38.59-2.09.23-1,.26-2.01.07-3.02-.13-.67-.54-1.09-1.17-1.31-.25-.09-.5-.17-.8-.27.61-.32,1.16-.63,1.72-.9.94-.45,1.92-.84,2.95-1.03,1.11-.21,2.23-.3,3.33.1.97.36,1.63,1.01,1.92,2.01.22.76.28,1.55.34,2.34.07.87.08,1.74-.1,2.6-.17.81-.37,1.62-.57,2.42-.5,2.03-1.32,3.94-2.26,5.79-1.29,2.55-2.82,4.97-4.55,7.25-1.3,1.71-2.67,3.36-4.17,4.9-1.08,1.11-2.21,2.18-3.41,3.17-1.05.86-2.13,1.68-3.3,2.37-1.21.72-2.46,1.37-3.85,1.69-.67.15-1.34.23-2.03.12-.6-.1-1.08-.45-1.1-1.21-.01-.56.08-1.1.23-1.63.32-1.13.8-2.19,1.36-3.22.77-1.42,1.66-2.76,2.68-4.01.59-.71,1.26-1.35,1.93-2.02.04,0,.06.03.06.03Z"></path><path class="cls-4" d="M56.47,24.78c.99.31,1.12,1.11,1.01,1.79-.1.6-.33,1.16-.6,1.7-.54,1.1-1.23,2.11-1.98,3.07-1.07,1.34-2.16,2.66-3.28,3.96-.73.85-1.53,1.65-2.3,2.48-.53.57-1.06,1.14-1.59,1.71-.11.12-.23.22-.39.3.02-.07.03-.15.06-.22.52-1.32,1.03-2.64,1.56-3.96.56-1.41,1.12-2.81,1.7-4.21.23-.56.47-1.11.74-1.65.28-.55.14-1.01-.23-1.44-.28-.32-.63-.54-1.02-.7-.12-.05-.24-.09-.43-.17.39-.26.72-.5,1.07-.72,1.4-.85,2.88-1.53,4.5-1.87.37-.08.77-.05,1.19-.07Z"></path><path class="cls-1" d="M54.18,46.95c-.55,1.13-1.25,2.13-1.99,3.1-.6.79-1.22,1.56-1.86,2.31-.7.81-1.43,1.6-2.17,2.37-.84.87-1.7,1.71-2.58,2.54-.63.59-1.3,1.16-2.05,1.61-.09.05-.19.1-.35.19.06-.23.1-.42.16-.58.37-.92.86-1.78,1.44-2.59,1.4-1.97,3.02-3.73,4.76-5.38.91-.87,1.88-1.68,2.84-2.49.55-.47,1.14-.88,1.72-1.32.03-.02.07-.03.18-.09-.04.15-.07.23-.1.34Z"></path><path class="cls-5" d="M46.85,29.38s.02,0,0,0c-.01,0-.01,0,0,0Z"></path><path class="cls-2" d="M21.12,35.43s.03-.04.05-.06c0,.02,0,.04,0,.08-.01.02-.04,0-.05-.02Z"></path><path class="cls-4" d="M47.29,39.88s0,.02,0,.02c0,0-.01-.01,0-.02Z"></path></svg></g></g></svg>