<?xml version="1.0" encoding="UTF-8"?>
<svg id="Capa_1" xmlns="http://www.w3.org/2000/svg" version="1.1" viewBox="0 0 512 512">
  <!-- Generator: Adobe Illustrator 30.2.1, SVG Export Plug-In . SVG Version: 2.1.1 Build 1)  -->
  <defs>
    <style>
      .st0 {
        fill: #fed700;
      }
    </style>
  </defs>
  <path class="st0" d="M352,0h-192C71.6,0,0,71.6,0,160v192c0,88.4,71.6,160,160,160h192c88.4,0,160-71.6,160-160v-192C512,71.6,440.4,0,352,0ZM464,352c0,61.8-50.2,112-112,112h-192c-61.8,0-112-50.2-112-112v-192c0-61.8,50.2-112,112-112h192c61.8,0,112,50.2,112,112v192Z"/>
  <path class="st0" d="M256,128c-70.7,0-128,57.3-128,128s57.3,128,128,128,128-57.3,128-128-57.3-128-128-128ZM256,336c-44.1,0-80-35.9-80-80s35.9-80,80-80,80,35.9,80,80-35.9,80-80,80Z"/>
  <circle class="st0" cx="393.6" cy="118.4" r="17.1"/>
</svg>