<?xml version="1.0" encoding="UTF-8"?>
<svg id="Ebene_3" xmlns="http://www.w3.org/2000/svg" version="1.1" viewBox="0 0 512 512">
  <!-- Generator: Adobe Illustrator 30.2.1, SVG Export Plug-In . SVG Version: 2.1.1 Build 1)  -->
  <defs>
    <style>
      .st0 {
        stroke-width: 8px;
      }

      .st0, .st1 {
        fill: #1e6bff;
        stroke: #1e6bff;
        stroke-miterlimit: 10;
      }

      .st1 {
        stroke-width: 20px;
      }
    </style>
  </defs>
  <path class="st1" d="M110.6,497h289.6c4,0,7.3-3.3,7.3-7.3v-100c0-67.8-45.3-127.6-110.4-146.2,44.4-18.1,74-62,74-109.9S317.9,15,252.5,15s-118.6,53.2-118.6,118.6,30.6,93.4,76.4,110.8c-30.1,9.3-57.1,28.3-76.2,53.5-20.2,26.6-30.9,58.3-30.9,91.7v100c0,4,3.3,7.3,7.3,7.3ZM117.9,482.4v-92.7c0-75.8,61.7-137.5,137.5-137.5s137.5,61.7,137.5,137.5v92.7H117.9ZM252.5,237.6c-57.3,0-104-46.7-104-104S195.2,29.6,252.5,29.6s104,46.7,104,104-46.7,104-104,104Z"/>
  <path class="st0" d="M325.1,448.2l-39.5-46.4c13.8-11.3,22.6-28.5,22.6-47.6,0-34-27.7-61.6-61.6-61.6s-61.6,27.7-61.6,61.6,27.7,61.6,61.6,61.6,23.7-3.6,33.3-9.8l39.8,46.8c.7.8,1.7,1.2,2.7,1.2s1.7-.3,2.3-.8c1.5-1.3,1.7-3.5.4-5ZM246.5,408.6c-30.1,0-54.5-24.5-54.5-54.5s24.5-54.5,54.5-54.5,54.5,24.5,54.5,54.5-24.5,54.5-54.5,54.5Z"/>
</svg>