<?xml version="1.0" encoding="UTF-8"?>
<svg id="Capa_1" xmlns="http://www.w3.org/2000/svg" version="1.1" viewBox="0 0 512 512">
  <!-- Generator: Adobe Illustrator 30.2.1, SVG Export Plug-In . SVG Version: 2.1.1 Build 1)  -->
  <defs>
    <style>
      .st0 {
        fill: #1e6bff;
      }
    </style>
  </defs>
  <path class="st0" d="M207.6,204.5c0-23.4-15.9-23.4-15.9-23.4h-65.4v50.2h61.4c10.6,0,19.9-3.4,19.9-26.8Z"/>
  <path class="st0" d="M359.3,231.3c-34.7,0-39.5,34.6-39.5,34.6h73.8s.6-34.6-34.3-34.6h0Z"/>
  <path class="st0" d="M191.7,265.9h-65.4v60.2h62.2c9.3-.2,26.9-3,26.9-29.2.1-31.2-23.6-31-23.6-31h0Z"/>
  <path class="st0" d="M421.4,6.4H90.7C40.6,6.4,0,47,0,97.1v317.9c0,50.1,40.6,90.7,90.7,90.7h330.7c50.1,0,90.7-40.6,90.7-90.7V97.1c0-50.1-40.6-90.7-90.7-90.7h0ZM310,154.4h92.8v27.7h-92.8v-27.7ZM263.2,299.6c0,68.6-71.5,66.4-71.5,66.4h-117v-224.9h117c35.6,0,63.6,19.7,63.6,59.9s-34.3,42.8-34.3,42.8c45.2,0,42.1,55.8,42.1,55.8h.1ZM436.6,296h-116.4c0,41.7,39.5,39.1,39.5,39.1,37.4,0,36.1-24.2,36.1-24.2h39.5c0,64.2-76.9,59.9-76.9,59.9-92.2,0-86.3-86-86.3-86,0-.4.1-86.4,86.3-86.4s78.2,97.6,78.2,97.6h0Z"/>
</svg>