<?xml version="1.0" encoding="UTF-8"?>
<svg id="Capa_1" xmlns="http://www.w3.org/2000/svg" version="1.1" viewBox="0 0 512 512">
  <!-- Generator: Adobe Illustrator 30.2.1, SVG Export Plug-In . SVG Version: 2.1.1 Build 1)  -->
  <defs>
    <style>
      .st0 {
        fill: none;
        stroke-width: 20px;
      }

      .st0, .st1 {
        stroke: #1e6bff;
        stroke-miterlimit: 10;
      }

      .st2 {
        fill: #1e6bff;
      }

      .st1 {
        fill: #fed700;
        stroke-width: 10px;
      }
    </style>
  </defs>
  <g>
    <path class="st2" d="M366.4,146.7c-.6-1.8-2.3-2.9-4.1-2.9h-82.1l-25.3-78.1c-.6-1.8-2.3-2.9-4.1-2.9s-3.6,1.2-4.1,2.9l-25.3,78.1h-82.1c-1.9,0-3.6,1.2-4.1,2.9-.6,1.8,0,3.7,1.5,4.8l66.5,48.3-25.3,78.1c-.6,1.8,0,3.7,1.5,4.8,1.5,1,3.6,1,5,0l66.5-48.3,66.5,48.3c.8.5,1.6.8,2.5.8s1.7-.3,2.5-.8c1.5-1.1,2.2-3,1.5-4.8l-25.4-78.1,66.5-48.3c1.5-1.1,2.2-3,1.5-4.8h-.2.1Z"/>
    <path class="st2" d="M319.7,283.8c-.9,0-1.9-.3-2.6-.8l-66.4-48.2-66.4,48.2c-1.5,1.1-3.7,1.1-5.3,0s-2.3-3.2-1.6-5l25.3-78-66.4-48.2c-1.5-1.1-2.3-3.2-1.6-5,.6-1.9,2.4-3.1,4.3-3.1h82l25.3-78c.6-1.9,2.4-3.1,4.3-3.1s3.7,1.3,4.3,3.1l25.3,78h82c2,0,3.7,1.2,4.3,3.1h0c.6,1.9,0,3.9-1.6,5l-66.4,48.2,25.3,78c.6,1.9,0,3.9-1.6,5-.8.6-1.7.8-2.6.8h.4-.3ZM250.7,234.2h0l66.5,48.4c1.4,1,3.4,1,4.8,0s2-2.8,1.5-4.6l-25.4-78.3h0l66.5-48.4c1.5-1,2-2.8,1.5-4.6h0c-.5-1.6-2.1-2.8-3.9-2.8h-82.3v-.2l-25.4-78.1c-.5-1.7-2.1-2.8-3.9-2.8s-3.4,1.1-3.9,2.8l-25.4,78.3h-82.3c-1.8,0-3.4,1.1-3.9,2.8s0,3.6,1.5,4.6l66.6,48.4-25.4,78.3c-.5,1.7,0,3.6,1.5,4.6,1.4,1,3.4,1,4.8,0l66.6-48.4h.4-.4ZM312,268.6l-58.8-42.7c-1.5-1-3.4-1-4.8,0l-58.8,42.7,22.5-69.1c.5-1.7,0-3.6-1.5-4.6l-58.8-42.7h72.8c1.8,0,3.4-1.1,3.9-2.8l22.5-69.1.2.6,22.2,68.5c.5,1.7,2.1,2.8,3.9,2.8h72v.5h-72c-2,0-3.7-1.3-4.3-3.1l-22-67.9-22,67.9c-.6,1.9-2.4,3.1-4.3,3.1h-71.4l57.8,42c1.5,1.1,2.3,3.2,1.6,5l-22,67.9,57.8-42c1.5-1.1,3.7-1.1,5.3,0l57.8,42-22-67.9c-.6-1.9,0-1.8.5,0l22.5,69.1h-.5v-.2Z"/>
  </g>
  <g>
    <path class="st1" d="M318.6,322.2v164.3l-60.8-60.8c-.7-.7-1.5-1-2.4-1s-1.6.3-2.2.8c-.1.1-18.1,15.9-35.6,31.8-15,13.6-23.9,21.8-29.1,27v-160.1c-2.3-1-4.5-2-6.8-3.1v171.2c0,1.1-.1,1.7,0,2.2.5,1.3,1.9,2.3,3.3,2.3s3.2-1.1,4.5-2.4c5-6.1,41.2-40,65.8-61.7l64.4,64.4c.6.7,1.5,1,2.4,1s.9,0,1.3-.3c1.3-.5,2.1-1.7,2.1-3.1v-175.8c-2.2,1.2-4.5,2.3-6.8,3.3h-.1Z"/>
    <path class="st1" d="M322,499.6c-1.3,0-2.5-.5-3.5-1.5l-63.4-63.4c-25.2,22.3-59.9,54.8-64.5,60.6h-.1c-1.9,2-3.8,3-5.5,3s-4-1.3-4.7-3.2c-.3-.7-.2-1.4-.2-2.3v-174l2.1,1c2.3,1.1,4.6,2.1,6.7,3l.9.4v157.5c5.4-5.2,13.8-13,26.6-24.5,13.8-12.5,27.9-25,35.1-31.3l.5-.5c.9-.8,2.1-1.2,3.2-1.2s2.5.5,3.5,1.4l58.3,58.3v-161.7l.9-.4c2.2-1,4.5-2.1,6.7-3.3l2.2-1.1v178.3c0,2-1.2,3.8-3,4.5-.6.2-1.2.4-1.9.4h0ZM255.3,430.7l65.4,65.4c.5.5,1.3.7,2,.4.7-.3,1.2-1,1.2-1.7v-173.4c-1.3.6-2.5,1.2-3.8,1.8v167l-63.4-63.4c-.7-.7-1.8-.7-2.6,0h0s-.2.2-.5.5c-7.2,6.3-21.3,18.8-35.1,31.3-15,13.5-23.9,21.8-29.1,26.9l-2.6,2.5v-162.7c-1.2-.5-2.5-1.1-3.8-1.7v170.5c.3.7,1.1,1.3,1.9,1.3s2.1-.7,3.4-1.9c5.4-6.6,42.8-41.4,65.9-61.8l1.1-.9h0Z"/>
  </g>
  <path class="st2" d="M319.1,487.8l-61.7-61.7c-1-1-2.8-1.1-3.9-.1,0,0-.2.2-.5.5-7.2,6.3-21.3,18.8-35.1,31.3-15,13.5-24,21.9-29.1,27l-.9.8v-162l.7.3c19.8,8.4,40.9,12.7,62.6,12.7s46.1-5,67.2-14.7l.7-.3v166.3h0ZM255.4,424.2c1,0,2,.4,2.7,1.1l60,60v-162.3c-21.1,9.6-43.6,14.5-66.9,14.5s-42.6-4.2-62.3-12.5v158.1c5.3-5.2,14.1-13.3,28.3-26.2,13.8-12.5,27.9-25,35.1-31.3l.5-.5c.7-.6,1.6-1,2.6-1h0Z"/>
  <circle class="st0" cx="250.6" cy="182.5" r="149.5"/>
</svg>