<?xml version="1.0" encoding="UTF-8"?>
<svg id="Capa_1" xmlns="http://www.w3.org/2000/svg" version="1.1" viewBox="0 0 512 512">
  <!-- Generator: Adobe Illustrator 30.2.1, SVG Export Plug-In . SVG Version: 2.1.1 Build 1)  -->
  <defs>
    <style>
      .st0 {
        fill: #1e6bff;
      }
    </style>
  </defs>
  <path class="st0" d="M486.7,51.6H30.3c-5.1,0-9.3,4.2-9.3,9.3v306.7c0,5.1,4.2,9.3,9.3,9.3h138.8l43.5,110.2c1.4,3.6,4.8,5.9,8.7,5.9h.2c3.9,0,7.3-2.6,8.6-6.3l38.2-109.8h218.4c5.1,0,9.3-4.2,9.3-9.3V60.9c0-5.1-4.2-9.3-9.3-9.3ZM477.3,352.1c0,3.4-2.8,6.1-6.1,6.1h-209.6c-4,0-7.5,2.5-8.8,6.3l-32.1,92.4-36.6-92.7c-1.4-3.6-4.8-5.9-8.7-5.9H45.8c-3.4,0-6.1-2.8-6.1-6.1V76.4c0-3.4,2.8-6.1,6.1-6.1h425.4c3.4,0,6.1,2.8,6.1,6.1v275.8Z"/>
</svg>