<?xml version="1.0" encoding="UTF-8"?>
<svg id="Ebene_1" xmlns="http://www.w3.org/2000/svg" version="1.1" viewBox="0 0 512 512">
  <!-- Generator: Adobe Illustrator 30.2.1, SVG Export Plug-In . SVG Version: 2.1.1 Build 1)  -->
  <defs>
    <style>
      .st0 {
        fill: none;
        stroke: #1e6bff;
        stroke-miterlimit: 10;
        stroke-width: 20px;
      }

      .st1 {
        fill: #1e6bff;
      }
    </style>
  </defs>
  <g id="Ebene_3">
    <g>
      <path class="st0" d="M496.4,257.4c0,132.9-107.2,240.6-239.5,240.6S17.5,390.3,17.5,257.4,72.5,80,152.3,41c5.1,67,54.9,124.7,124.2,137,28.8,5.1,57.2,1.6,82.5-8.6,9,23.1,29.4,41,55.6,45.6,12.3,2.2,24.4,1.1,35.5-2.5,6.5,20.4,23.7,36.7,46.3,40.8v4.2h0Z"/>
      <g>
        <ellipse class="st1" cx="168" cy="214.8" rx="47.2" ry="46.4"/>
        <circle class="st1" cx="331.9" cy="352.8" r="32.3"/>
        <circle class="st1" cx="138.7" cy="351.3" r="27"/>
        <circle class="st1" cx="260.7" cy="286.2" r="24.5"/>
        <circle class="st1" cx="225.2" cy="418.1" r="14.7"/>
        <circle class="st1" cx="376.2" cy="253" r="13.4"/>
      </g>
    </g>
  </g>
</svg>