<?xml version="1.0" encoding="UTF-8"?>
<svg id="Ebene_1" data-name="Ebene 1" xmlns="http://www.w3.org/2000/svg" viewBox="0 0 498.9 482.46">
  <defs>
    <style>
      .cls-1 {
        fill: none;
        stroke: #000;
        stroke-miterlimit: 10;
        stroke-width: 20px;
      }
    </style>
  </defs>
  <g id="Ebene_3" data-name="Ebene 3">
    <g>
      <path class="cls-1" d="M488.9,231.86c0,132.9-107.2,240.6-239.5,240.6S10,364.76,10,231.86,65,54.46,144.8,15.46c5.1,67,54.9,124.7,124.2,137,28.8,5.1,57.2,1.6,82.5-8.6,9,23.1,29.4,41,55.6,45.6,12.3,2.2,24.4,1.1,35.5-2.5,6.5,20.4,23.7,36.7,46.3,40.8v4.2-.1Z"/>
      <g>
        <ellipse cx="160.5" cy="189.26" rx="47.2" ry="46.4"/>
        <circle cx="324.4" cy="327.26" r="32.3"/>
        <circle cx="131.2" cy="325.76" r="27"/>
        <circle cx="253.2" cy="260.66" r="24.5"/>
        <circle cx="217.7" cy="392.56" r="14.7"/>
        <circle cx="368.7" cy="227.46" r="13.4"/>
      </g>
    </g>
  </g>
</svg>